<?xml version="1.0" encoding="UTF-8" standalone="no"?>
<svg
   xmlns:dc="http://purl.org/dc/elements/1.1/"
   xmlns:cc="http://creativecommons.org/ns#"
   xmlns:rdf="http://www.w3.org/1999/02/22-rdf-syntax-ns#"
   xmlns:svg="http://www.w3.org/2000/svg"
   xmlns="http://www.w3.org/2000/svg"
   id="svg11"
   xml:space="preserve"
   enable-background="new 0 0 200 200"
   viewBox="0 0 200 200"
   y="0px"
   x="0px"
   version="1.1"><metadata
     id="metadata15"><rdf:RDF><cc:Work
         rdf:about=""><dc:format>image/svg+xml</dc:format><dc:type
           rdf:resource="http://purl.org/dc/dcmitype/StillImage" /></cc:Work></rdf:RDF></metadata><defs
     id="defs658345" /><linearGradient
     spreadMethod="pad"
     y2="30%"
     x2="-10%"
     y1="120%"
     x1="30%"
     id="3d_gradient2-logo-8c4238ef-2fdb-4d1f-be2f-b34a33add8b8"><stop
       id="stop658322"
       stop-opacity="1"
       stop-color="#ffffff"
       offset="0%" /><stop
       id="stop658324"
       stop-opacity="1"
       stop-color="#000000"
       offset="100%" /></linearGradient><linearGradient
     gradientTransform="rotate(-30)"
     spreadMethod="pad"
     y2="30%"
     x2="-10%"
     y1="120%"
     x1="30%"
     id="3d_gradient3-logo-8c4238ef-2fdb-4d1f-be2f-b34a33add8b8"><stop
       id="stop658327"
       stop-opacity="1"
       stop-color="#ffffff"
       offset="0%" /><stop
       id="stop658329"
       stop-opacity="1"
       stop-color="#cccccc"
       offset="50%" /><stop
       id="stop658331"
       stop-opacity="1"
       stop-color="#000000"
       offset="100%" /></linearGradient><path
     style="fill:#a58b00;stroke-width:0.90874982"
     d="m 97.017653,68.479088 c -0.958459,-0.0091 -1.83413,-0.0075 -1.94527,0.0035 -0.111158,0.01111 -0.54316,0.05558 -0.960003,0.09853 -0.416844,0.04295 -1.084775,0.133895 -1.483989,0.201597 -0.399159,0.0672 -1.138391,0.223834 -1.642111,0.347115 -0.503747,0.123281 -1.279792,0.341563 -1.724443,0.485563 -0.444633,0.143492 -1.149478,0.398151 -1.566321,0.565388 -0.416844,0.167246 -1.144389,0.492124 -1.616848,0.722529 -0.472423,0.230404 -1.142935,0.582572 -1.490531,0.78316 -0.347116,0.200089 -0.915566,0.551748 -1.263163,0.781143 -0.347115,0.229387 -0.870064,0.594196 -1.162109,0.811459 -0.291536,0.216755 -0.791748,0.609853 -1.111583,0.8736 -0.319325,0.263746 -1.060056,0.959004 -1.645655,1.545056 -0.585598,0.586108 -1.252075,1.292969 -1.481898,1.570865 -0.229387,0.277896 -0.608844,0.760424 -0.843284,1.072143 -0.234439,0.311747 -0.638651,0.891284 -0.898862,1.288426 -0.260212,0.396633 -0.614906,0.968636 -0.788722,1.27125 -0.173808,0.30215 -0.516379,0.961548 -0.761942,1.465268 -0.245562,0.503247 -0.581054,1.256619 -0.746274,1.673463 -0.16472,0.416843 -0.39158,1.041881 -0.503747,1.389478 -0.112676,0.347115 -0.273852,0.882196 -0.358738,1.188372 -0.08489,0.306195 -0.223326,0.881179 -0.307703,1.278339 -0.08388,0.396633 -0.197562,0.998898 -0.252124,1.337952 -0.05457,0.339036 -0.132886,0.957459 -0.173807,1.374302 -0.04143,0.416844 -0.08994,1.201004 -0.108632,1.743164 -0.02021,0.583581 -0.0096,1.397567 0.02475,1.995797 0.03233,0.555791 0.09247,1.306146 0.133387,1.667374 0.04093,0.361264 0.121263,0.940828 0.17886,1.288425 0.0571,0.347115 0.182404,0.983722 0.277895,1.414742 0.096,0.430484 0.278405,1.132847 0.40623,1.560782 0.127834,0.42745 0.331457,1.04642 0.452212,1.3753 0.120755,0.32892 0.314273,0.82004 0.429984,1.09186 0.115702,0.27184 0.37794,0.82914 0.582572,1.2389 0.205141,0.40926 0.520423,0.99281 0.700301,1.29597 0.194527,0.32741 0.414826,0.62653 0.541642,0.73516 0.117729,0.10105 0.32994,0.24 0.470905,0.30872 0.141474,0.0692 0.386528,0.14703 0.544677,0.1728 0.169264,0.0273 0.399669,0.0288 0.558318,0.003 0.148544,-0.0237 0.358738,-0.0809 0.46737,-0.1258 0.108123,-0.045 0.294571,-0.17785 0.414317,-0.29457 0.119247,-0.11672 0.270317,-0.30316 0.335493,-0.41432 0.06517,-0.11116 0.155114,-0.32539 0.199579,-0.47647 0.04496,-0.15107 0.08135,-0.37996 0.08135,-0.5088 0,-0.12884 -0.03689,-0.35773 -0.08135,-0.5088 -0.04497,-0.15108 -0.259702,-0.57347 -0.477475,-0.93983 -0.217773,-0.36581 -0.542151,-0.957 -0.720002,-1.31369 -0.177852,-0.35621 -0.438572,-0.93274 -0.579537,-1.27988 -0.140466,-0.34762 -0.349642,-0.91602 -0.464844,-1.263162 -0.115702,-0.347624 -0.298106,-0.984267 -0.406738,-1.414742 -0.108123,-0.430993 -0.24101,-1.033248 -0.29558,-1.338952 -0.05406,-0.305685 -0.140466,-0.874108 -0.191492,-1.263162 -0.07377,-0.565388 -0.09246,-1.04688 -0.09196,-2.400008 5.06e-4,-1.333863 0.02021,-1.842672 0.09196,-2.400009 0.05053,-0.389054 0.148044,-1.002987 0.217264,-1.364215 0.06872,-0.361264 0.206649,-0.975179 0.306194,-1.364215 0.09954,-0.389054 0.300633,-1.060057 0.447159,-1.490532 0.146527,-0.430992 0.38501,-1.062055 0.529011,-1.403109 0.144509,-0.341054 0.420378,-0.930742 0.612888,-1.31069 0.19251,-0.379458 0.545177,-1.012529 0.783669,-1.406654 0.237984,-0.394107 0.643205,-1.004986 0.899881,-1.357127 0.256676,-0.352677 0.64573,-0.861985 0.864512,-1.131303 0.218781,-0.269807 0.841775,-0.93474 1.384389,-1.478445 0.542651,-0.543668 1.27125,-1.21518 1.618393,-1.492076 0.347624,-0.276887 0.870573,-0.673011 1.162109,-0.88017 0.292045,-0.207158 0.879161,-0.586107 1.304601,-0.841774 0.42594,-0.255668 1.074233,-0.612889 1.440005,-0.792757 0.366317,-0.180378 0.91602,-0.434019 1.221723,-0.56388 0.305686,-0.129851 0.958459,-0.370861 1.450638,-0.535072 0.492124,-0.16472 1.219724,-0.376931 1.616847,-0.472422 0.397142,-0.09499 0.97209,-0.218273 1.277794,-0.274361 0.305685,-0.05558 0.862994,-0.142483 1.237899,-0.192509 0.548212,-0.07326 1.024161,-0.09044 2.425271,-0.08893 1.356673,0.0015 1.888655,0.02173 2.400008,0.08943 0.361265,0.048 0.918565,0.134404 1.237907,0.192001 0.31983,0.0576 0.93374,0.193009 1.36421,0.301141 0.43099,0.108124 1.0676,0.290019 1.41474,0.404212 0.34763,0.114194 0.90893,0.318317 1.24799,0.45373 0.33904,0.135413 0.91911,0.391071 1.28842,0.568423 0.36986,0.177352 0.97918,0.499204 1.35413,0.715459 0.37542,0.215746 0.96655,0.586107 1.31369,0.822573 0.34763,0.236466 0.8251,0.580546 1.06106,0.764468 0.23646,0.183412 0.66089,0.532545 0.94437,0.775581 0.28295,0.242527 0.79074,0.718485 1.12876,1.057512 0.33752,0.339037 0.84632,0.890784 1.1303,1.226813 0.28447,0.335492 0.65432,0.792257 0.82257,1.015073 0.16826,0.222826 0.49971,0.700301 0.73617,1.061056 0.23697,0.360756 0.55984,0.880679 0.71748,1.156021 0.15815,0.27486 0.39663,0.718485 0.53002,0.985267 0.13389,0.266781 0.35824,0.749809 0.4987,1.073687 0.14097,0.32337 0.35975,0.874109 0.48657,1.224268 0.12682,0.349642 0.32186,0.959004 0.43352,1.354128 0.11115,0.394616 0.26981,1.040882 0.35216,1.435461 0.0819,0.394616 0.19453,1.060057 0.25062,1.478446 0.0556,0.418361 0.1243,1.199458 0.15209,1.736075 0.0333,0.643704 0.0339,1.301057 9.1e-4,1.934638 -0.0268,0.528001 -0.0849,1.243987 -0.12885,1.591584 -0.044,0.347115 -0.13642,0.927197 -0.20564,1.288426 -0.0692,0.361264 -0.1824,0.884213 -0.25112,1.162109 -0.0692,0.277895 -0.21727,0.800845 -0.32943,1.162109 -0.11217,0.361264 -0.34055,1.004985 -0.50829,1.430375 -0.16725,0.42543 -0.49264,1.15302 -0.72355,1.61684 -0.2304,0.46383 -0.6048,1.14994 -0.83217,1.52543 -0.22787,0.37491 -0.57499,0.90948 -0.77205,1.18737 -0.19755,0.2779 -0.56791,0.76649 -0.82307,1.08632 -0.25516,0.31933 -0.73617,0.87664 -1.0686,1.2379 -0.33196,0.36127 -0.86349,0.88826 -1.18128,1.17065 -0.31731,0.28295 -0.78518,0.68312 -1.03979,0.88978 -0.25465,0.20665 -0.72354,0.56084 -1.04234,0.7867 -0.31933,0.22636 -0.88421,0.5957 -1.25562,0.82105 -0.37137,0.22484 -1.05451,0.59773 -1.51834,0.82813 -0.46383,0.23091 -1.19137,0.5563 -1.61685,0.72354 -0.42544,0.16775 -1.06914,0.39664 -1.43037,0.5093 -0.36126,0.11268 -0.94083,0.27436 -1.28842,0.35874 -0.34712,0.0849 -0.94992,0.20919 -1.33896,0.27588 -0.389054,0.0672 -0.945827,0.14653 -1.237899,0.17735 -0.291536,0.0303 -0.609853,0.0692 -0.707371,0.0864 -0.09701,0.0172 -12.943324,0.045 -28.547467,0.0622 l -28.37026,0.0303 -0.293054,0.14855 c -0.161684,0.0819 -0.374405,0.23798 -0.473431,0.34762 -0.09904,0.10964 -0.239492,0.32691 -0.312755,0.48304 -0.115702,0.24758 -0.132887,0.34863 -0.132378,0.78922 5.05e-4,0.44969 0.01668,0.54013 0.146527,0.82358 0.09549,0.20767 0.232422,0.39563 0.393598,0.54064 0.135912,0.12177 0.376422,0.27436 0.535071,0.33852 l 0.288001,0.11621 h 28.243945 c 23.176755,0 28.3848,-0.0121 29.027286,-0.0677 0.430993,-0.0374 1.146933,-0.12126 1.591587,-0.18645 0.44463,-0.0652 1.13839,-0.18846 1.54106,-0.27385 0.4032,-0.0849 1.01962,-0.23444 1.37076,-0.33145 0.35065,-0.097 0.97418,-0.29103 1.38493,-0.4315 0.41129,-0.13995 1.0338,-0.37036 1.38339,-0.51132 0.34964,-0.14098 0.99945,-0.43352 1.44401,-0.64978 0.44463,-0.21625 1.09286,-0.5568 1.44,-0.75638 0.34762,-0.20009 0.9272,-0.55781 1.28843,-0.79478 0.36126,-0.23748 0.90695,-0.61743 1.21263,-0.8448 0.30569,-0.22737 0.82864,-0.64118 1.16211,-0.91957 0.33348,-0.2789 0.87764,-0.76598 1.20864,-1.08332 0.33146,-0.3173 0.85137,-0.84935 1.15602,-1.18283 0.30417,-0.33347 0.76295,-0.86804 1.02016,-1.18737 0.25668,-0.31983 0.67403,-0.8731 0.9282,-1.23035 0.25364,-0.35722 0.65937,-0.97109 0.9019,-1.36422 0.24252,-0.3931 0.69271,-1.21518 1.00044,-1.8265 0.3077,-0.61137 0.68211,-1.41874 0.83116,-1.79369 0.14955,-0.37541 0.3936,-1.04588 0.54214,-1.49053 0.14905,-0.44463 0.3734,-1.217722 0.49921,-1.717898 0.12581,-0.500213 0.29406,-1.295968 0.3749,-1.768427 0.0803,-0.472423 0.18291,-1.177286 0.22788,-1.566322 0.0444,-0.389054 0.0945,-1.299057 0.11065,-2.022059 0.0192,-0.830152 0.007,-1.620846 -0.0308,-2.147376 -0.0334,-0.457773 -0.0935,-1.094407 -0.13389,-1.413742 -0.0404,-0.319834 -0.13238,-0.911021 -0.20414,-1.313688 -0.0718,-0.403204 -0.22837,-1.119126 -0.34812,-1.591585 -0.11925,-0.472423 -0.31276,-1.154566 -0.42998,-1.515795 -0.11722,-0.361264 -0.29962,-0.884213 -0.40472,-1.162109 -0.1056,-0.277895 -0.31023,-0.778108 -0.45524,-1.111583 -0.14501,-0.333474 -0.38906,-0.856424 -0.54165,-1.162109 -0.15309,-0.305685 -0.42594,-0.81752 -0.60631,-1.136846 -0.18089,-0.319325 -0.56438,-0.939829 -0.85238,-1.378392 -0.288,-0.439071 -0.69626,-1.025705 -0.90746,-1.304601 -0.2107,-0.278904 -0.54822,-0.704335 -0.74931,-0.945827 -0.20059,-0.241009 -0.62401,-0.720511 -0.94029,-1.0646 -0.3163,-0.344589 -0.8832,-0.910022 -1.25961,-1.256074 -0.37643,-0.346615 -1.00299,-0.885731 -1.39203,-1.19746 -0.38905,-0.312255 -0.98426,-0.761941 -1.32277,-0.998897 -0.33802,-0.236466 -0.97464,-0.646739 -1.41475,-0.910477 -0.43958,-0.264255 -1.17119,-0.666441 -1.62593,-0.89381 -0.45423,-0.227369 -1.18183,-0.562361 -1.61685,-0.743748 -0.43453,-0.181386 -1.15402,-0.451203 -1.59867,-0.600256 -0.44463,-0.148545 -1.11513,-0.350651 -1.49053,-0.449177 -0.37491,-0.09853 -0.96455,-0.236466 -1.30915,-0.306694 -0.34509,-0.06973 -0.8453,-0.161685 -1.11158,-0.203115 -0.26677,-0.04194 -0.768516,-0.111667 -1.116131,-0.155114 -0.429475,-0.05356 -1.188917,-0.08388 -2.374745,-0.09499 z m 47.145027,31.406393 c -0.0162,0.0027 -0.13288,0.02326 -0.2597,0.04498 -0.12682,0.02117 -0.35066,0.09954 -0.49718,0.173809 -0.14602,0.0743 -0.36228,0.23142 -0.48051,0.34964 -0.11772,0.11773 -0.28093,0.34915 -0.36177,0.51436 -0.12783,0.26073 -0.14753,0.35773 -0.14753,0.73011 0,0.29558 0.0293,0.5083 0.0945,0.68211 0.0843,0.22585 0.69069,0.84985 5.69686,5.86162 3.08112,3.08511 5.60235,5.62561 5.60235,5.64633 0,0.0207 -7.1126,0.0374 -15.80588,0.0374 -13.79755,0 -15.8377,0.01 -16.0567,0.0748 -0.13844,0.0409 -0.35924,0.14602 -0.49112,0.23292 -0.13137,0.0874 -0.30366,0.25264 -0.38299,0.36734 -0.0788,0.11519 -0.18291,0.32286 -0.23091,0.46181 -0.0515,0.14854 -0.0884,0.40875 -0.0894,0.63158 -9.1e-4,0.20817 0.0258,0.48101 0.0596,0.60632 0.0333,0.1248 0.13844,0.34509 0.23242,0.48859 0.0945,0.144 0.2688,0.32893 0.38804,0.41078 0.11924,0.0819 0.33044,0.19149 0.46939,0.24404 l 0.25263,0.0945 15.72683,0.0253 15.72682,0.0253 -5.48367,5.48213 c -3.01641,3.01487 -5.55082,5.58517 -5.63216,5.71103 -0.0813,0.12632 -0.18493,0.3739 -0.2304,0.55074 -0.0556,0.21626 -0.0717,0.40826 -0.0495,0.5851 0.0182,0.14501 0.096,0.39764 0.17381,0.56135 0.0909,0.19251 0.24152,0.39006 0.42644,0.55882 0.1723,0.15764 0.40219,0.3067 0.57651,0.3739 0.19806,0.0768 0.4032,0.11317 0.64421,0.11469 0.28244,0.002 0.41988,-0.0268 0.68211,-0.14248 l 0.32842,-0.14501 7.32634,-7.30508 c 5.64888,-5.6327 7.36124,-7.36778 7.47792,-7.57951 0.13086,-0.23697 0.15158,-0.3264 0.15158,-0.65685 0,-0.2496 -0.0328,-0.4704 -0.0945,-0.63512 -0.0843,-0.22636 -0.8443,-1.00344 -7.37332,-7.53808 -4.96577,-4.97031 -7.35261,-7.32534 -7.50973,-7.41021 -0.12681,-0.0687 -0.36581,-0.150069 -0.53053,-0.179885 -0.16522,-0.03035 -0.31275,-0.05252 -0.32842,-0.04898 z"
     id="icon" /></svg>