<?xml version="1.0" encoding="utf-8"?>
<svg version="1.1" xmlns:cc="http://creativecommons.org/ns#" xmlns:dc="http://purl.org/dc/elements/1.1/"
     xmlns:rdf="http://www.w3.org/1999/02/22-rdf-syntax-ns#" xmlns="http://www.w3.org/2000/svg"
     xmlns:xlink="http://www.w3.org/1999/xlink" x="0px" y="0px" viewBox="0 0 1024 1024" xml:space="preserve">
<defs>
<filter id="blur" x="0%" y="0%" width="100%" height="100%">
  <feGaussianBlur in="SourceGraphic" stdDeviation="20"/>
</filter>

    <clipPath id="clip">
<path fill="#fcfcfc"
      d="m311.87 281.04l-55.87 114.73h4.63l20.91-42.72h59.91l21.21 42.72h5.23l-56.02-114.73zm-0.45 10.31l28.24 57.36h-56.17l27.93-57.36zm381.63 12.85c-2.89 0-4.34 1.34-4.34 4.03s1.45 4.03 4.34 4.03 4.33-1.34 4.33-4.03-1.44-4.03-4.33-4.03zm-51.76 22.7c-12.25 0-20.91 5.08-25.99 15.24v-13.59h-4.78v67.22h4.78v-39.14c0-6.87 2.59-12.85 7.77-17.92 5.27-5.08 11.35-7.62 18.22-7.62s12.7 2.54 17.48 7.62c4.88 5.07 7.32 11.05 7.32 17.92v39.14h4.78v-39.14c0-8.26-2.84-15.29-8.51-21.06-5.68-5.78-12.7-8.67-21.07-8.67zm-228.19 0.15c-9.76 0-18.13 3.49-25.1 10.46-6.97 6.87-10.46 15.14-10.46 24.8s3.49 17.98 10.46 24.95c6.97 6.87 15.34 10.3 25.1 10.3 6.17 0 12.15-1.64 17.92-4.93 5.78-3.28 10.01-7.66 12.7-13.14v10.01c0 10.26-2.79 18.32-8.36 24.2-5.58 5.97-12.75 8.96-21.52 8.96-5.77 0-11.45-1.59-17.03-4.78-5.47-3.18-9.51-7.17-12.1-11.95v6.87c2.99 4.19 7.17 7.57 12.55 10.16s10.91 3.89 16.58 3.89c10.36 0 18.73-3.34 25.1-10.01 6.38-6.68 9.56-15.79 9.56-27.34v-60.95h-4.78v16.73c-2.69-5.68-6.87-10.11-12.55-13.3-5.57-3.28-11.6-4.93-18.07-4.93zm112.87 0.31c-1.06-0.01-2.03-0.01-2.15 0-0.13 0.02-0.61 0.07-1.07 0.11-0.46 0.05-1.2 0.15-1.64 0.23-0.45 0.07-1.26 0.24-1.82 0.38s-1.42 0.38-1.91 0.54c-0.5 0.16-1.28 0.44-1.74 0.63-0.46 0.18-1.27 0.54-1.79 0.8-0.53 0.25-1.27 0.64-1.65 0.86-0.39 0.23-1.02 0.62-1.41 0.87-0.38 0.26-0.96 0.66-1.28 0.9-0.33 0.24-0.88 0.68-1.23 0.97-0.36 0.29-1.18 1.06-1.83 1.71s-1.39 1.43-1.64 1.74c-0.26 0.31-0.68 0.85-0.94 1.19-0.26 0.35-0.7 0.99-0.99 1.43s-0.69 1.07-0.88 1.41c-0.19 0.33-0.57 1.06-0.84 1.62s-0.65 1.4-0.83 1.86-0.43 1.15-0.56 1.54c-0.12 0.38-0.3 0.98-0.39 1.31-0.1 0.34-0.25 0.98-0.35 1.42-0.09 0.44-0.22 1.11-0.28 1.49-0.06 0.37-0.14 1.06-0.19 1.52s-0.1 1.33-0.12 1.93c-0.02 0.65-0.01 1.55 0.03 2.21 0.03 0.62 0.1 1.45 0.15 1.85 0.04 0.4 0.13 1.04 0.19 1.43 0.07 0.38 0.21 1.09 0.31 1.57 0.11 0.47 0.31 1.25 0.45 1.73 0.14 0.47 0.37 1.16 0.5 1.52 0.14 0.37 0.35 0.91 0.48 1.21s0.42 0.92 0.65 1.37c0.22 0.46 0.57 1.11 0.77 1.44 0.22 0.37 0.46 0.7 0.6 0.82 0.13 0.11 0.37 0.26 0.53 0.34 0.15 0.08 0.42 0.16 0.6 0.19 0.19 0.03 0.44 0.03 0.62 0 0.16-0.02 0.4-0.09 0.52-0.14s0.32-0.19 0.45-0.32c0.14-0.13 0.31-0.34 0.38-0.46 0.07-0.13 0.17-0.36 0.22-0.53s0.09-0.42 0.09-0.56c0-0.15-0.04-0.4-0.09-0.57s-0.29-0.64-0.53-1.04c-0.24-0.41-0.6-1.06-0.8-1.46-0.2-0.39-0.49-1.03-0.64-1.41-0.16-0.39-0.39-1.02-0.52-1.4-0.13-0.39-0.33-1.1-0.45-1.57-0.12-0.48-0.26-1.15-0.33-1.49-0.05-0.34-0.15-0.97-0.21-1.4-0.08-0.62-0.1-1.16-0.1-2.66 0-1.48 0.02-2.04 0.1-2.66 0.06-0.43 0.17-1.11 0.24-1.51 0.08-0.4 0.23-1.08 0.34-1.51s0.34-1.18 0.5-1.66c0.16-0.47 0.42-1.17 0.58-1.55s0.47-1.03 0.68-1.45c0.22-0.42 0.61-1.13 0.87-1.56 0.27-0.44 0.72-1.12 1-1.51 0.29-0.39 0.72-0.95 0.96-1.25s0.93-1.04 1.53-1.64 1.41-1.35 1.8-1.65c0.38-0.31 0.96-0.75 1.29-0.98 0.32-0.23 0.97-0.65 1.44-0.93 0.47-0.29 1.19-0.68 1.6-0.88 0.4-0.2 1.01-0.48 1.35-0.63 0.34-0.14 1.06-0.41 1.61-0.59 0.54-0.18 1.35-0.42 1.79-0.52 0.44-0.11 1.08-0.24 1.42-0.31 0.34-0.06 0.96-0.15 1.37-0.21 0.61-0.08 1.14-0.1 2.69-0.1 1.5 0 2.09 0.03 2.66 0.1 0.4 0.05 1.02 0.15 1.37 0.21 0.36 0.07 1.04 0.22 1.51 0.34 0.48 0.12 1.19 0.32 1.57 0.44 0.39 0.13 1.01 0.36 1.38 0.51 0.38 0.15 1.02 0.43 1.43 0.63s1.09 0.55 1.5 0.79c0.42 0.24 1.07 0.65 1.46 0.91 0.38 0.26 0.92 0.65 1.18 0.85s0.73 0.59 1.04 0.86c0.32 0.27 0.88 0.8 1.25 1.17 0.38 0.38 0.94 0.99 1.26 1.36 0.31 0.37 0.72 0.88 0.91 1.13 0.18 0.24 0.55 0.77 0.81 1.17 0.27 0.4 0.62 0.98 0.8 1.28 0.17 0.31 0.44 0.8 0.59 1.1 0.15 0.29 0.39 0.83 0.55 1.19s0.4 0.97 0.54 1.36c0.14 0.38 0.36 1.06 0.48 1.5 0.12 0.43 0.3 1.15 0.39 1.59 0.09 0.43 0.22 1.17 0.28 1.64 0.06 0.46 0.14 1.32 0.17 1.92 0.03 0.71 0.03 1.44 0 2.14-0.03 0.59-0.1 1.38-0.14 1.77-0.05 0.38-0.15 1.03-0.23 1.43s-0.2 0.98-0.28 1.28c-0.08 0.31-0.24 0.89-0.37 1.29-0.12 0.4-0.37 1.12-0.56 1.59-0.18 0.47-0.55 1.28-0.8 1.79-0.26 0.51-0.67 1.28-0.92 1.69-0.26 0.42-0.64 1.01-0.86 1.32s-0.63 0.85-0.91 1.2c-0.29 0.36-0.82 0.97-1.19 1.37-0.36 0.4-0.95 0.99-1.3 1.3-0.36 0.31-0.88 0.76-1.16 0.99s-0.8 0.62-1.15 0.87c-0.36 0.25-0.98 0.66-1.4 0.91-0.41 0.25-1.16 0.66-1.68 0.92-0.51 0.25-1.32 0.61-1.79 0.8s-1.19 0.44-1.59 0.56c-0.4 0.13-1.04 0.31-1.42 0.4-0.39 0.1-1.06 0.23-1.49 0.31-0.43 0.07-1.05 0.16-1.37 0.19-0.32 0.04-0.68 0.08-0.78 0.1-0.11 0.02-14.35 0.05-31.65 0.07l-31.45 0.03-0.32 0.17c-0.18 0.09-0.42 0.26-0.53 0.38s-0.26 0.36-0.34 0.54c-0.13 0.27-0.15 0.38-0.15 0.87 0 0.5 0.02 0.6 0.16 0.92 0.11 0.23 0.26 0.43 0.44 0.59 0.15 0.14 0.42 0.31 0.59 0.38l0.32 0.13h31.31c25.69 0 31.46-0.01 32.18-0.08 0.47-0.04 1.27-0.13 1.76-0.2 0.49-0.08 1.26-0.21 1.71-0.31 0.45-0.09 1.13-0.26 1.52-0.36 0.38-0.11 1.08-0.33 1.53-0.48 0.46-0.16 1.15-0.41 1.54-0.57 0.38-0.15 1.1-0.48 1.6-0.72 0.49-0.24 1.21-0.62 1.59-0.84 0.39-0.22 1.03-0.61 1.43-0.88 0.4-0.26 1.01-0.68 1.34-0.93 0.34-0.26 0.92-0.72 1.29-1.02 0.37-0.31 0.97-0.85 1.34-1.21 0.37-0.35 0.95-0.94 1.28-1.31 0.34-0.37 0.85-0.96 1.13-1.31 0.29-0.36 0.75-0.97 1.03-1.37 0.28-0.39 0.73-1.07 1-1.51 0.27-0.43 0.77-1.35 1.11-2.02 0.34-0.68 0.76-1.58 0.92-1.99 0.17-0.42 0.44-1.16 0.6-1.65 0.17-0.5 0.42-1.35 0.56-1.91 0.14-0.55 0.32-1.43 0.41-1.96 0.09-0.52 0.21-1.3 0.26-1.73s0.1-1.44 0.12-2.25c0.02-0.92 0.01-1.79-0.04-2.38-0.03-0.5-0.1-1.21-0.14-1.56-0.05-0.36-0.15-1.01-0.23-1.46s-0.25-1.24-0.39-1.76c-0.13-0.53-0.34-1.28-0.47-1.68s-0.33-0.98-0.45-1.29-0.35-0.86-0.51-1.23-0.43-0.95-0.6-1.29-0.47-0.91-0.67-1.26c-0.2-0.36-0.62-1.04-0.94-1.53s-0.78-1.14-1.01-1.45-0.61-0.78-0.83-1.04c-0.22-0.27-0.69-0.8-1.04-1.18-0.35-0.39-0.98-1.01-1.4-1.4-0.42-0.38-1.11-0.98-1.54-1.32-0.43-0.35-1.09-0.85-1.47-1.11-0.37-0.26-1.08-0.72-1.57-1.01-0.48-0.29-1.29-0.74-1.8-0.99-0.5-0.25-1.31-0.62-1.79-0.82-0.48-0.21-1.28-0.51-1.77-0.67-0.5-0.17-1.24-0.39-1.65-0.5-0.42-0.11-1.07-0.26-1.46-0.34-0.38-0.08-0.93-0.18-1.23-0.22-0.29-0.05-0.85-0.13-1.23-0.18-0.48-0.05-1.32-0.09-2.64-0.1zm192.13 1.19l17.78 26.89-26.44 40.33h4.78l24.05-36.6 24.2 36.6h5.53l-27.04-40.78 17.33-26.44h-4.78l-14.94 22.7-14.94-22.7h-5.53zm-27.44 0.15v67.07h4.78v-67.07h-4.78zm-277.41 2.54c8.46 0 15.68 3.08 21.66 9.26 5.97 6.07 8.96 13.34 8.96 21.81 0 8.46-2.99 15.78-8.96 21.96-5.98 6.07-13.2 9.11-21.66 9.11-8.37 0-15.64-3.04-21.81-9.11-6.08-6.18-9.12-13.5-9.12-21.96 0-8.47 3.04-15.74 9.12-21.81 6.17-6.18 13.44-9.26 21.81-9.26zm164.98 30.93c-0.02 0-0.15 0.03-0.29 0.05-0.14 0.03-0.38 0.11-0.55 0.19-0.16 0.09-0.4 0.26-0.53 0.39s-0.31 0.39-0.4 0.57c-0.14 0.29-0.17 0.4-0.17 0.81 0 0.33 0.04 0.56 0.11 0.76 0.09 0.25 0.77 0.94 6.31 6.5 3.42 3.42 6.21 6.23 6.21 6.25 0 0.03-7.88 0.05-17.52 0.05-15.29 0-17.55 0.01-17.79 0.08-0.16 0.04-0.4 0.16-0.55 0.26-0.14 0.09-0.34 0.28-0.42 0.4-0.09 0.13-0.21 0.36-0.26 0.52-0.06 0.16-0.1 0.45-0.1 0.7 0 0.23 0.03 0.53 0.07 0.67 0.03 0.14 0.15 0.38 0.26 0.54 0.1 0.16 0.29 0.36 0.43 0.46 0.13 0.09 0.36 0.21 0.52 0.26l0.28 0.11 17.43 0.03 17.43 0.02-6.08 6.08c-3.34 3.34-6.15 6.19-6.24 6.33s-0.2 0.42-0.26 0.61c-0.06 0.24-0.07 0.46-0.05 0.65 0.02 0.16 0.11 0.44 0.19 0.62 0.1 0.22 0.27 0.44 0.47 0.62s0.45 0.34 0.65 0.42c0.21 0.08 0.44 0.12 0.71 0.13 0.31 0 0.46-0.03 0.75-0.16l0.37-0.16 8.12-8.1c6.26-6.24 8.16-8.17 8.29-8.4 0.14-0.26 0.17-0.36 0.17-0.73 0-0.28-0.04-0.52-0.11-0.7-0.09-0.25-0.94-1.12-8.17-8.36-5.51-5.51-8.15-8.12-8.33-8.21-0.14-0.08-0.4-0.17-0.58-0.2-0.19-0.04-0.35-0.06-0.37-0.06zm-232.75 97.47l-2.08 1.05v5.25h-2.6v1.88h2.6v10.22c0 2.33 1 3.49 3.01 3.49 0.99 0 1.92-0.23 2.77-0.68l0.24-2.18c-0.87 0.6-1.64 0.89-2.3 0.89-0.65 0-1.09-0.21-1.31-0.62-0.22-0.42-0.33-1.02-0.33-1.79v-9.33h3.88v-1.88h-3.88v-6.3zm17.89 0l-2.09 1.05v5.25h-2.6v1.88h2.6v10.22c0 2.33 1 3.49 3.01 3.49 0.99 0 1.92-0.23 2.77-0.68l0.24-2.18c-0.87 0.6-1.64 0.89-2.3 0.89-0.65 0-1.09-0.21-1.31-0.62-0.22-0.42-0.32-1.02-0.32-1.79v-9.33h3.87v-1.88h-3.87v-6.3zm10.2 0l-2.09 0.99v20.54h2.09v-9.36c0-2.9 1.25-4.35 3.75-4.35 1.1 0 1.96 0.36 2.6 1.07 0.63 0.7 0.95 1.81 0.95 3.34v9.3h2.09v-8.43c0-2.51-0.45-4.33-1.34-5.46-0.88-1.13-2.25-1.7-4.12-1.7-1.71 0-3.02 0.69-3.93 2.06v-8zm222.17 0l-2.09 1.05v5.25h-2.59v1.88h2.59v10.22c0 2.33 1 3.49 3.01 3.49 1 0 1.92-0.23 2.78-0.68l0.23-2.18c-0.87 0.6-1.64 0.89-2.29 0.89-0.66 0-1.09-0.21-1.31-0.62-0.22-0.42-0.33-1.02-0.33-1.79v-9.33h3.87v-1.88h-3.87v-6.3zm10.2 0l-2.09 0.99v20.54h2.09v-9.36c0-2.9 1.25-4.35 3.76-4.35 1.09 0 1.95 0.36 2.59 1.07 0.64 0.7 0.95 1.81 0.95 3.34v9.3h2.09v-8.43c0-2.51-0.45-4.33-1.34-5.46-0.87-1.13-2.25-1.7-4.11-1.7-1.71 0-3.03 0.69-3.94 2.06v-8zm63.42 0l-2.08 0.99v20.54h2.08v-9.36c0-2.9 1.25-4.35 3.76-4.35 1.09 0 1.96 0.36 2.59 1.07 0.64 0.7 0.96 1.81 0.96 3.34v9.3h2.08v-8.43c0-2.51-0.44-4.33-1.34-5.46-0.87-1.13-2.24-1.7-4.11-1.7-1.71 0-3.02 0.69-3.94 2.06v-8zm33.23 0l-2.09 1.02v20.51h2.09v-21.53zm-138.19 0.3c-0.9 0-1.65 0.28-2.27 0.84-0.6 0.56-0.89 1.41-0.89 2.56v2.6h-2.45v1.88h2.45v13.35h2.08v-13.35h3.67v-1.88h-3.67v-2.27c0-0.28 0.01-0.5 0.03-0.65 0.02-0.16 0.07-0.34 0.15-0.54 0.1-0.2 0.26-0.35 0.48-0.45s0.5-0.15 0.83-0.15c0.7 0 1.43 0.2 2.18 0.6v-1.82c-0.87-0.48-1.74-0.72-2.59-0.72zm-133.78 0.06c-0.38 0-0.71 0.14-0.99 0.42-0.26 0.28-0.39 0.62-0.39 1.02 0 0.39 0.13 0.72 0.39 0.98s0.59 0.39 0.99 0.39c0.39 0 0.72-0.13 0.98-0.39s0.39-0.59 0.39-0.98c0-0.4-0.13-0.74-0.39-1.02s-0.59-0.42-0.98-0.42zm123.52 0c-0.38 0-0.7 0.14-0.98 0.42-0.26 0.28-0.39 0.62-0.39 1.02 0 0.39 0.13 0.72 0.39 0.98s0.58 0.39 0.98 0.39 0.73-0.13 0.98-0.39c0.26-0.26 0.39-0.59 0.39-0.98 0-0.4-0.13-0.74-0.39-1.02-0.25-0.28-0.58-0.42-0.98-0.42zm-256.59 0.3v2h5.73v18.87h2.09v-18.87h5.75v-2h-13.57zm113.74 0v20.87h2.09v-8.61h5.55c2.21 0 3.86-0.62 4.95-1.85s1.64-2.66 1.64-4.27c0-1.73-0.53-3.18-1.58-4.35-1.03-1.19-2.7-1.79-5.01-1.79h-7.64zm96.88 0l7.16 20.87h1.52l7.12-20.87h-2.23l-4.98 15.66c-0.04 0.14-0.13 0.42-0.27 0.86-0.14 0.42-0.24 0.75-0.3 0.98l-0.3-0.89c-0.12-0.42-0.21-0.73-0.29-0.95l-5.22-15.66h-2.21zm133.43 0l4.02 20.87h1.43l4.53-14.96c0.24-0.8 0.42-1.42 0.54-1.85 0.12 0.43 0.3 1.05 0.54 1.85l4.47 14.96h1.31l4.53-20.87h-2.17l-3.01 14.32-0.36 1.75c-0.1-0.39-0.25-0.95-0.45-1.67l-4.05-14.4h-1.55l-4.12 14.4c-0.32 1.12-0.51 1.79-0.56 2.03l-0.36-2.09-2.54-14.34h-2.2zm-228.22 1.88h5.73c1.57 0 2.69 0.43 3.37 1.28 0.69 0.86 1.04 1.85 1.04 2.98 0 1.16-0.36 2.15-1.07 2.99-0.72 0.83-1.83 1.25-3.34 1.25h-5.73v-8.5zm-94.8 3.4c-1.98 0-3.58 0.71-4.8 2.12-1.21 1.41-1.82 3.36-1.82 5.84 0 2.23 0.61 4.12 1.82 5.67 1.22 1.55 2.82 2.32 4.8 2.32 1.71 0 3.26-0.57 4.65-1.73l-1.13-1.4c-1.07 0.8-2.22 1.19-3.43 1.19-1.27 0-2.29-0.46-3.07-1.4-0.77-0.93-1.25-2.19-1.43-3.78h10.38c0.04-0.44 0.06-0.93 0.06-1.46 0-2.43-0.57-4.26-1.7-5.49-1.14-1.26-2.58-1.88-4.33-1.88zm14.24 0c-1.45 0-2.64 0.36-3.55 1.07-0.92 0.72-1.38 1.65-1.38 2.81 0 0.61 0.11 1.17 0.33 1.66 0.24 0.48 0.6 0.9 1.08 1.26 0.47 0.35 0.94 0.65 1.4 0.89s1.04 0.51 1.76 0.81c0.59 0.24 1.06 0.43 1.4 0.59s0.71 0.39 1.13 0.69c0.44 0.28 0.76 0.6 0.96 0.95 0.2 0.34 0.29 0.73 0.29 1.17 0 0.69-0.27 1.24-0.83 1.64-0.56 0.37-1.27 0.56-2.15 0.56-1.47 0-2.79-0.69-3.96-2.08l-1.46 1.28c1.49 1.77 3.24 2.65 5.24 2.65 1.57 0 2.82-0.38 3.73-1.13 0.93-0.76 1.4-1.77 1.4-3.04 0-0.6-0.11-1.13-0.33-1.61-0.19-0.5-0.43-0.9-0.71-1.2-0.26-0.31-0.65-0.62-1.16-0.92-0.5-0.32-0.92-0.55-1.26-0.68-0.33-0.16-0.8-0.36-1.4-0.6-0.5-0.2-0.85-0.34-1.07-0.42-0.22-0.1-0.52-0.25-0.9-0.45-0.37-0.22-0.65-0.4-0.83-0.56-0.18-0.18-0.34-0.4-0.48-0.66s-0.21-0.54-0.21-0.83c0-0.62 0.26-1.11 0.78-1.47 0.54-0.35 1.24-0.53 2.12-0.53 1.33 0 2.54 0.55 3.63 1.64l1.38-1.17c-1.3-1.55-2.95-2.32-4.95-2.32zm60.95 0c-1.99 0-3.59 0.71-4.8 2.12s-1.82 3.36-1.82 5.84c0 2.23 0.61 4.12 1.82 5.67s2.81 2.32 4.8 2.32c1.71 0 3.26-0.57 4.65-1.73l-1.13-1.4c-1.07 0.8-2.22 1.19-3.43 1.19-1.27 0-2.3-0.46-3.07-1.4-0.78-0.93-1.25-2.19-1.43-3.78h10.37c0.04-0.44 0.06-0.93 0.06-1.46 0-2.43-0.56-4.26-1.7-5.49-1.13-1.26-2.57-1.88-4.32-1.88zm48.86 0c-1.99 0-3.59 0.71-4.8 2.12s-1.82 3.36-1.82 5.84c0 2.23 0.61 4.12 1.82 5.67s2.81 2.32 4.8 2.32c1.71 0 3.26-0.57 4.65-1.73l-1.13-1.4c-1.07 0.8-2.22 1.19-3.43 1.19-1.27 0-2.29-0.46-3.07-1.4-0.77-0.93-1.25-2.19-1.43-3.78h10.38c0.04-0.44 0.06-0.93 0.06-1.46 0-2.43-0.57-4.26-1.7-5.49-1.14-1.26-2.58-1.88-4.33-1.88zm15.43 0c-1.95 0-3.48 0.71-4.6 2.12-1.11 1.41-1.67 3.37-1.67 5.87 0 2.51 0.54 4.46 1.62 5.88 1.09 1.39 2.56 2.08 4.41 2.08 1.29 0 2.41-0.31 3.37-0.92 0.95-0.64 1.61-1.49 1.97-2.57l-1.88-0.71c-0.26 0.71-0.69 1.28-1.28 1.7-0.58 0.41-1.28 0.62-2.09 0.62-2.63 0-3.94-2.02-3.94-6.08 0-4.07 1.33-6.11 4-6.11 1.49 0 2.51 0.68 3.07 2.06l1.91-0.75c-0.42-1.01-1.06-1.8-1.91-2.36-0.86-0.55-1.85-0.83-2.98-0.83zm14.68 0c-1.99 0-3.59 0.71-4.8 2.12s-1.82 3.36-1.82 5.84c0 2.23 0.61 4.12 1.82 5.67s2.81 2.32 4.8 2.32c1.71 0 3.26-0.57 4.65-1.73l-1.13-1.4c-1.07 0.8-2.22 1.19-3.43 1.19-1.27 0-2.29-0.46-3.07-1.4-0.78-0.93-1.25-2.19-1.43-3.78h10.38c0.03-0.44 0.06-0.93 0.06-1.46 0-2.43-0.57-4.26-1.71-5.49-1.13-1.26-2.57-1.88-4.32-1.88zm14.23 0c-1.45 0-2.63 0.36-3.54 1.07-0.92 0.72-1.38 1.65-1.38 2.81 0 0.61 0.11 1.17 0.33 1.66 0.24 0.48 0.6 0.9 1.08 1.26 0.47 0.35 0.94 0.65 1.4 0.89 0.45 0.24 1.04 0.51 1.76 0.81 0.59 0.24 1.06 0.43 1.4 0.59s0.71 0.39 1.13 0.69c0.44 0.28 0.76 0.6 0.96 0.95 0.19 0.34 0.29 0.73 0.29 1.17 0 0.69-0.28 1.24-0.83 1.64-0.56 0.37-1.27 0.56-2.15 0.56-1.47 0-2.79-0.69-3.96-2.08l-1.47 1.28c1.5 1.77 3.24 2.65 5.25 2.65 1.57 0 2.81-0.38 3.73-1.13 0.93-0.76 1.4-1.77 1.4-3.04 0-0.6-0.11-1.13-0.33-1.61-0.2-0.5-0.43-0.9-0.71-1.2-0.26-0.31-0.65-0.62-1.17-0.92-0.49-0.32-0.91-0.55-1.25-0.68-0.34-0.16-0.8-0.36-1.4-0.6-0.5-0.2-0.85-0.34-1.07-0.42-0.22-0.1-0.52-0.25-0.9-0.45-0.37-0.22-0.65-0.4-0.83-0.56-0.18-0.18-0.34-0.4-0.48-0.66s-0.21-0.54-0.21-0.83c0-0.62 0.26-1.11 0.78-1.47 0.53-0.35 1.24-0.53 2.11-0.53 1.34 0 2.55 0.55 3.64 1.64l1.37-1.17c-1.29-1.55-2.94-2.32-4.95-2.32zm44.71 0c-1.99 0-3.59 0.71-4.8 2.12s-1.82 3.36-1.82 5.84c0 2.23 0.61 4.12 1.82 5.67s2.81 2.32 4.8 2.32c1.71 0 3.26-0.57 4.65-1.73l-1.13-1.4c-1.08 0.8-2.22 1.19-3.43 1.19-1.27 0-2.3-0.46-3.07-1.4-0.78-0.93-1.26-2.19-1.43-3.78h10.37c0.04-0.44 0.06-0.93 0.06-1.46 0-2.43-0.56-4.26-1.7-5.49-1.13-1.26-2.57-1.88-4.32-1.88zm16.14 0c-1.79 0-3.07 0.83-3.85 2.5v-2.14h-2.08v15.23h2.08v-8.61c0-1.69 0.38-2.93 1.14-3.7 0.77-0.8 1.63-1.19 2.56-1.19 0.7 0 1.35 0.18 1.97 0.56l0.33-2.02c-0.58-0.42-1.29-0.63-2.15-0.63zm78.32 0c-1.99 0-3.59 0.71-4.8 2.12s-1.82 3.36-1.82 5.84c0 2.23 0.61 4.12 1.82 5.67s2.81 2.32 4.8 2.32c1.71 0 3.26-0.57 4.65-1.73l-1.13-1.4c-1.07 0.8-2.21 1.19-3.43 1.19-1.27 0-2.29-0.46-3.07-1.4-0.78-0.93-1.25-2.19-1.43-3.78h10.38c0.04-0.44 0.06-0.93 0.06-1.46 0-2.43-0.57-4.26-1.7-5.49-1.14-1.26-2.58-1.88-4.33-1.88zm63.34 0c-1.97 0-3.55 0.72-4.75 2.15-1.19 1.41-1.78 3.36-1.78 5.84 0 2.51 0.58 4.46 1.76 5.88 1.19 1.39 2.78 2.08 4.77 2.08 1.96 0 3.54-0.7 4.74-2.11 1.19-1.44 1.79-3.39 1.79-5.88 0-2.5-0.6-4.45-1.79-5.84-1.18-1.41-2.76-2.12-4.74-2.12zm24.2 0c-1.99 0-3.59 0.71-4.8 2.12-1.22 1.41-1.82 3.36-1.82 5.84 0 2.23 0.6 4.12 1.82 5.67 1.21 1.55 2.81 2.32 4.8 2.32 1.71 0 3.26-0.57 4.65-1.73l-1.13-1.4c-1.08 0.8-2.22 1.19-3.43 1.19-1.28 0-2.3-0.46-3.08-1.4-0.77-0.93-1.25-2.19-1.43-3.78h10.38c0.04-0.44 0.06-0.93 0.06-1.46 0-2.43-0.57-4.26-1.7-5.49-1.13-1.26-2.57-1.88-4.32-1.88zm-284.11 0.36v15.23h2.09v-15.23h-2.09zm123.53 0v15.23h2.09v-15.23h-2.09zm15.83 0l5.58 14.76-2.27 6.26h2.06l7.78-21.02h-2.23l-3.91 10.82-0.54 1.55-0.24-0.71c-0.12-0.36-0.2-0.64-0.26-0.84l-3.85-10.82h-2.12zm-250.35 1.52c1.02 0 1.91 0.39 2.69 1.16 0.79 0.76 1.2 2.06 1.22 3.91h-8.38c0.08-1.67 0.53-2.93 1.34-3.79 0.82-0.85 1.86-1.28 3.13-1.28zm75.19 0c1.01 0 1.91 0.39 2.68 1.16 0.8 0.76 1.21 2.06 1.23 3.91h-8.38c0.08-1.67 0.52-2.93 1.34-3.79 0.81-0.85 1.86-1.28 3.13-1.28zm48.86 0c1.02 0 1.91 0.39 2.69 1.16 0.79 0.76 1.2 2.06 1.22 3.91h-8.38c0.08-1.67 0.53-2.93 1.34-3.79 0.82-0.85 1.86-1.28 3.13-1.28zm30.11 0c1.02 0 1.91 0.39 2.69 1.16 0.79 0.76 1.2 2.06 1.22 3.91h-8.38c0.08-1.67 0.53-2.93 1.34-3.79 0.82-0.85 1.86-1.28 3.13-1.28zm58.94 0c1.01 0 1.91 0.39 2.68 1.16 0.8 0.76 1.21 2.06 1.23 3.91h-8.38c0.08-1.67 0.52-2.93 1.34-3.79 0.81-0.85 1.86-1.28 3.13-1.28zm94.46 0c1.02 0 1.91 0.39 2.69 1.16 0.79 0.76 1.2 2.06 1.22 3.91h-8.38c0.08-1.67 0.53-2.93 1.34-3.79 0.82-0.85 1.86-1.28 3.13-1.28zm63.34 0c1.41 0 2.48 0.53 3.22 1.61 0.75 1.07 1.13 2.56 1.13 4.47s-0.39 3.41-1.16 4.5c-0.76 1.08-1.82 1.61-3.19 1.61-1.41 0-2.5-0.53-3.26-1.61-0.73-1.07-1.1-2.56-1.1-4.47 0-1.99 0.37-3.5 1.1-4.53 0.76-1.05 1.85-1.58 3.26-1.58zm24.2 0c1.01 0 1.9 0.39 2.68 1.16 0.79 0.76 1.2 2.06 1.22 3.91h-8.38c0.08-1.67 0.53-2.93 1.34-3.79 0.82-0.85 1.86-1.28 3.14-1.28zm-216.24 10.37c-0.52 0-0.97 0.19-1.34 0.57-0.36 0.38-0.54 0.82-0.54 1.31 0 0.5 0.18 0.94 0.54 1.32 0.37 0.37 0.82 0.56 1.34 0.56 0.51 0 0.95-0.19 1.31-0.56 0.38-0.38 0.56-0.82 0.56-1.32 0-0.49-0.18-0.93-0.56-1.31-0.36-0.38-0.8-0.57-1.31-0.57zm227.13 0c-0.52 0-0.97 0.19-1.34 0.57-0.36 0.38-0.54 0.82-0.54 1.31 0 0.5 0.18 0.94 0.54 1.32 0.37 0.37 0.82 0.56 1.34 0.56s0.95-0.19 1.31-0.56c0.38-0.38 0.57-0.82 0.57-1.32 0-0.49-0.19-0.93-0.57-1.31-0.36-0.38-0.79-0.57-1.31-0.57z"
      transform="translate(0 128)"/>
</clipPath>
</defs>

    <g filter="url(#blur)" clip-path="url(#clip)">
<rect width="512" height="512" x="0" y="0" fill="#a58b00"/>
        <rect width="512" height="512" x="512" y="0" fill="#b1b3b1"/>
        <rect width="512" height="512" x="512" y="512" fill="#ada676"/>
        <rect width="512" height="512" x="0" y="512" fill="#a9983b"/>
</g>
</svg>
