<?xml version="1.0" encoding="utf-8"?>
<svg version="1.1"
     xmlns="http://www.w3.org/2000/svg"
     x="0px" y="0px" viewBox="0 0 1024 768" xml:space="preserve">
<rect fill="#fcfcfc" width="1024" height="768"/>


    <g id="logo-group" transform="translate(-124.12 -93.093) scale(1.2424)">
  <path id="path658349" style="font-variant-ligatures:none"
        d="m345.69 447.02v15.192h-1.68v-15.192h-4.608v-1.608h10.92v1.608z" stroke-miterlimit="2" stroke-width="0"
        fill="#a58b00"/>
        <path id="path658351" style="font-variant-ligatures:none"
              d="m356.32 462.5q-2.4 0-3.864-1.872t-1.464-4.56q0-3 1.464-4.704t3.864-1.704q2.112 0 3.48 1.512 1.368 1.488 1.368 4.416 0 0.648-0.048 1.176h-8.352q0.216 1.92 1.152 3.048t2.472 1.128q1.464 0 2.76-0.96l0.912 1.128q-1.68 1.392-3.744 1.392zm-3.6-7.248h6.744q-0.024-2.232-0.984-3.144-0.936-0.936-2.16-0.936-1.536 0-2.52 1.032t-1.08 3.048z"
              stroke-miterlimit="2" stroke-width="0" fill="#a58b00"/>
        <path id="path658353" style="font-variant-ligatures:none"
              d="m367.99 462.5q-2.424 0-4.224-2.136l1.176-1.032q1.416 1.68 3.192 1.68 1.056 0 1.728-0.456 0.672-0.48 0.672-1.32 0-0.528-0.24-0.936-0.24-0.432-0.768-0.768-0.504-0.36-0.912-0.552t-1.128-0.48q-0.864-0.36-1.416-0.648t-1.128-0.72-0.864-1.008q-0.264-0.6-0.264-1.344 0-1.392 1.104-2.256t2.856-0.864q2.424 0 3.984 1.872l-1.104 0.936q-1.32-1.32-2.928-1.32-1.056 0-1.704 0.432-0.624 0.432-0.624 1.176 0 0.36 0.168 0.672t0.384 0.528q0.216 0.192 0.672 0.456 0.456 0.24 0.72 0.36 0.264 0.096 0.864 0.336 0.72 0.288 1.128 0.48 0.408 0.168 1.008 0.552 0.624 0.36 0.936 0.744 0.336 0.36 0.576 0.96 0.264 0.576 0.264 1.296 0 1.536-1.128 2.448-1.104 0.912-3 0.912z"
              stroke-miterlimit="2" stroke-width="0" fill="#a58b00"/>
        <path id="path658355" style="font-variant-ligatures:none"
              d="m378.72 462.5q-2.424 0-2.424-2.808v-8.232h-2.088v-1.512h2.088v-4.224l1.68-0.84v5.064h3.12v1.512h-3.12v7.512q0 0.936 0.264 1.44t1.056 0.504 1.848-0.72l-0.192 1.752q-1.032 0.552-2.232 0.552z"
              stroke-miterlimit="2" stroke-width="0" fill="#a58b00"/>
        <path id="path658357" style="font-variant-ligatures:none"
              d="m393.11 462.5q-2.424 0-2.424-2.808v-8.232h-2.088v-1.512h2.088v-4.224l1.68-0.84v5.064h3.12v1.512h-3.12v7.512q0 0.936 0.264 1.44t1.056 0.504 1.848-0.72l-0.192 1.752q-1.032 0.552-2.232 0.552z"
              stroke-miterlimit="2" stroke-width="0" fill="#a58b00"/>
        <path id="path658359" style="font-variant-ligatures:none"
              d="m398.9 462.21v-16.536l1.68-0.792v6.432q1.104-1.656 3.168-1.656 2.256 0 3.312 1.368 1.08 1.368 1.08 4.392v6.792h-1.68v-7.488q0-1.848-0.768-2.688-0.768-0.864-2.088-0.864-3.024 0-3.024 3.504v7.536z"
              stroke-miterlimit="2" stroke-width="0" fill="#a58b00"/>
        <path id="path658361" style="font-variant-ligatures:none"
              d="m416.84 462.5q-2.4 0-3.864-1.872t-1.464-4.56q0-3 1.464-4.704t3.864-1.704q2.112 0 3.48 1.512 1.368 1.488 1.368 4.416 0 0.648-0.048 1.176h-8.352q0.216 1.92 1.152 3.048t2.472 1.128q1.464 0 2.76-0.96l0.912 1.128q-1.68 1.392-3.744 1.392zm-3.6-7.248h6.744q-0.024-2.232-0.984-3.144-0.936-0.936-2.16-0.936-1.536 0-2.52 1.032t-1.08 3.048z"
              stroke-miterlimit="2" stroke-width="0" fill="#a58b00"/>
        <path id="path658363" style="font-variant-ligatures:none"
              d="m430.95 462.21v-16.8h6.144q2.784 0 4.032 1.44 1.272 1.416 1.272 3.504 0 1.944-1.32 3.432t-3.984 1.488h-4.464v6.936zm6.288-8.448q1.824 0 2.688-1.008t0.864-2.4q0-1.368-0.84-2.4-0.816-1.032-2.712-1.032h-4.608v6.84z"
              stroke-miterlimit="2" stroke-width="0" fill="#a58b00"/>
        <path id="path658365" style="font-variant-ligatures:none"
              d="m447.29 447.12q-0.312 0.312-0.792 0.312t-0.792-0.312-0.312-0.792 0.312-0.816q0.336-0.336 0.792-0.336 0.48 0 0.792 0.336t0.312 0.816-0.312 0.792zm-1.632 15.096v-12.264h1.68v12.264z"
              stroke-miterlimit="2" stroke-width="0" fill="#a58b00"/>
        <path id="path658367" style="font-variant-ligatures:none"
              d="m456.17 462.5q-2.4 0-3.864-1.872t-1.464-4.56q0-3 1.464-4.704t3.864-1.704q2.112 0 3.48 1.512 1.368 1.488 1.368 4.416 0 0.648-0.048 1.176h-8.352q0.216 1.92 1.152 3.048t2.472 1.128q1.464 0 2.76-0.96l0.912 1.128q-1.68 1.392-3.744 1.392zm-3.6-7.248h6.744q-0.024-2.232-0.984-3.144-0.936-0.936-2.16-0.936-1.536 0-2.52 1.032t-1.08 3.048z"
              stroke-miterlimit="2" stroke-width="0" fill="#a58b00"/>
        <path id="path658369" style="font-variant-ligatures:none"
              d="m468.39 462.5q-2.232 0-3.552-1.68-1.296-1.704-1.296-4.728t1.344-4.728 3.696-1.704q1.368 0 2.4 0.672t1.536 1.896l-1.536 0.6q-0.672-1.656-2.472-1.656-3.216 0-3.216 4.92 0 4.896 3.168 4.896 0.984 0 1.68-0.504 0.72-0.504 1.032-1.368l1.512 0.576q-0.432 1.296-1.584 2.064-1.152 0.744-2.712 0.744z"
              stroke-miterlimit="2" stroke-width="0" fill="#a58b00"/>
        <path id="path658371" style="font-variant-ligatures:none"
              d="m480.4 462.5q-2.4 0-3.864-1.872t-1.464-4.56q0-3 1.464-4.704t3.864-1.704q2.112 0 3.48 1.512 1.368 1.488 1.368 4.416 0 0.648-0.048 1.176h-8.352q0.216 1.92 1.152 3.048t2.472 1.128q1.464 0 2.76-0.96l0.912 1.128q-1.68 1.392-3.744 1.392zm-3.6-7.248h6.744q-0.024-2.232-0.984-3.144-0.936-0.936-2.16-0.936-1.536 0-2.52 1.032t-1.08 3.048z"
              stroke-miterlimit="2" stroke-width="0" fill="#a58b00"/>
        <path id="path658373" style="font-variant-ligatures:none"
              d="m492.07 462.5q-2.424 0-4.224-2.136l1.176-1.032q1.416 1.68 3.192 1.68 1.056 0 1.728-0.456 0.672-0.48 0.672-1.32 0-0.528-0.24-0.936-0.24-0.432-0.768-0.768-0.504-0.36-0.912-0.552t-1.128-0.48q-0.864-0.36-1.416-0.648t-1.128-0.72-0.864-1.008q-0.264-0.6-0.264-1.344 0-1.392 1.104-2.256t2.856-0.864q2.424 0 3.984 1.872l-1.104 0.936q-1.32-1.32-2.928-1.32-1.056 0-1.704 0.432-0.624 0.432-0.624 1.176 0 0.36 0.168 0.672t0.384 0.528q0.216 0.192 0.672 0.456 0.456 0.24 0.72 0.36 0.264 0.096 0.864 0.336 0.72 0.288 1.128 0.48 0.408 0.168 1.008 0.552 0.624 0.36 0.936 0.744 0.336 0.36 0.576 0.96 0.264 0.576 0.264 1.296 0 1.536-1.128 2.448-1.104 0.912-3 0.912z"
              stroke-miterlimit="2" stroke-width="0" fill="#a58b00"/>
        <path id="path658375" style="font-variant-ligatures:none"
              d="m501.33 462.09q-0.432 0.456-1.056 0.456t-1.08-0.456q-0.432-0.456-0.432-1.056t0.432-1.056q0.456-0.456 1.08-0.456t1.056 0.456q0.456 0.456 0.456 1.056t-0.456 1.056z"
              stroke-miterlimit="2" stroke-width="0" fill="#a58b00"/>
        <path id="path658377" style="font-variant-ligatures:none"
              d="m514.68 462.21-5.76-16.8h1.776l4.2 12.6q0.096 0.264 0.24 0.768 0.168 0.504 0.24 0.72 0.072-0.288 0.24-0.792 0.168-0.528 0.216-0.696l4.008-12.6h1.8l-5.736 16.8z"
              stroke-miterlimit="2" stroke-width="0" fill="#a58b00"/>
        <path id="path658379" style="font-variant-ligatures:none"
              d="m527.84 462.5q-2.4 0-3.864-1.872t-1.464-4.56q0-3 1.464-4.704t3.864-1.704q2.112 0 3.48 1.512 1.368 1.488 1.368 4.416 0 0.648-0.048 1.176h-8.352q0.216 1.92 1.152 3.048t2.472 1.128q1.464 0 2.76-0.96l0.912 1.128q-1.68 1.392-3.744 1.392zm-3.6-7.248h6.744q-0.024-2.232-0.984-3.144-0.936-0.936-2.16-0.936-1.536 0-2.52 1.032t-1.08 3.048z"
              stroke-miterlimit="2" stroke-width="0" fill="#a58b00"/>
        <path id="path658381" style="font-variant-ligatures:none"
              d="m536.05 462.21v-12.264h1.68v1.728q0.936-2.016 3.096-2.016 1.032 0 1.728 0.504l-0.264 1.632q-0.744-0.456-1.584-0.456-1.128 0-2.064 0.96-0.912 0.936-0.912 2.976v6.936z"
              stroke-miterlimit="2" stroke-width="0" fill="#a58b00"/>
        <path id="path658383" style="font-variant-ligatures:none"
              d="m546.71 447.12q-0.312 0.312-0.792 0.312t-0.792-0.312-0.312-0.792 0.312-0.816q0.336-0.336 0.792-0.336 0.48 0 0.792 0.336t0.312 0.816-0.312 0.792zm-1.632 15.096v-12.264h1.68v12.264z"
              stroke-miterlimit="2" stroke-width="0" fill="#a58b00"/>
        <path id="path658385" style="font-variant-ligatures:none"
              d="m553.31 451.46v10.752h-1.68v-10.752h-1.968v-1.512h1.968v-2.088q0-1.392 0.72-2.064 0.744-0.672 1.824-0.672 1.032 0 2.088 0.576v1.464q-0.912-0.48-1.752-0.48-0.408 0-0.672 0.12t-0.384 0.36q-0.096 0.24-0.12 0.432t-0.024 0.528v1.824h2.952v1.512z"
              stroke-miterlimit="2" stroke-width="0" fill="#a58b00"/>
        <path id="path658387" style="font-variant-ligatures:none"
              d="m560.49 466.87 1.824-5.04-4.488-11.88h1.704l3.096 8.712q0.072 0.24 0.216 0.672t0.192 0.576l0.432-1.248 3.144-8.712h1.8l-6.264 16.92z"
              stroke-miterlimit="2" stroke-width="0" fill="#a58b00"/>
        <path id="path658389" style="font-variant-ligatures:none"
              d="m580.14 462.5q-2.424 0-2.424-2.808v-8.232h-2.088v-1.512h2.088v-4.224l1.68-0.84v5.064h3.12v1.512h-3.12v7.512q0 0.936 0.264 1.44t1.056 0.504 1.848-0.72l-0.192 1.752q-1.032 0.552-2.232 0.552z"
              stroke-miterlimit="2" stroke-width="0" fill="#a58b00"/>
        <path id="path658391" style="font-variant-ligatures:none"
              d="m585.93 462.21v-16.536l1.68-0.792v6.432q1.104-1.656 3.168-1.656 2.256 0 3.312 1.368 1.08 1.368 1.08 4.392v6.792h-1.68v-7.488q0-1.848-0.768-2.688-0.768-0.864-2.088-0.864-3.024 0-3.024 3.504v7.536z"
              stroke-miterlimit="2" stroke-width="0" fill="#a58b00"/>
        <path id="path658393" style="font-variant-ligatures:none"
              d="m603.87 462.5q-2.4 0-3.864-1.872t-1.464-4.56q0-3 1.464-4.704t3.864-1.704q2.112 0 3.48 1.512 1.368 1.488 1.368 4.416 0 0.648-0.048 1.176h-8.352q0.216 1.92 1.152 3.048t2.472 1.128q1.464 0 2.76-0.96l0.912 1.128q-1.68 1.392-3.744 1.392zm-3.6-7.248h6.744q-0.024-2.232-0.984-3.144-0.936-0.936-2.16-0.936-1.536 0-2.52 1.032t-1.08 3.048z"
              stroke-miterlimit="2" stroke-width="0" fill="#a58b00"/>
        <path id="path658395" style="font-variant-ligatures:none"
              d="m619.55 462.21-3.24-16.8h1.776l2.04 11.544 0.288 1.68q0.072-0.288 0.456-1.632l3.312-11.592h1.248l3.264 11.592q0.24 0.864 0.36 1.344l0.288-1.416 2.424-11.52h1.752l-3.648 16.8h-1.056l-3.6-12.048q-0.288-0.96-0.432-1.488-0.144 0.528-0.432 1.488l-3.648 12.048z"
              stroke-miterlimit="2" stroke-width="0" fill="#a58b00"/>
        <path id="path658397" style="font-variant-ligatures:none"
              d="m636.98 462.21v-16.536l1.68-0.792v6.432q1.104-1.656 3.168-1.656 2.256 0 3.312 1.368 1.08 1.368 1.08 4.392v6.792h-1.68v-7.488q0-1.848-0.768-2.688-0.768-0.864-2.088-0.864-3.024 0-3.024 3.504v7.536z"
              stroke-miterlimit="2" stroke-width="0" fill="#a58b00"/>
        <path id="path658399" style="font-variant-ligatures:none"
              d="m654.85 462.5q-2.4 0-3.84-1.68-1.416-1.704-1.416-4.728 0-3 1.44-4.704 1.44-1.728 3.816-1.728 2.4 0 3.816 1.704 1.44 1.68 1.44 4.704 0 3-1.44 4.728-1.44 1.704-3.816 1.704zm0-1.512q1.656 0 2.568-1.296 0.936-1.32 0.936-3.624t-0.912-3.6q-0.888-1.296-2.592-1.296t-2.616 1.272q-0.888 1.248-0.888 3.648 0 2.304 0.888 3.6 0.912 1.296 2.616 1.296z"
              stroke-miterlimit="2" stroke-width="0" fill="#a58b00"/>
        <path id="path658401" style="font-variant-ligatures:none" d="m663.72 462.21v-16.512l1.68-0.816v17.328z"
              stroke-miterlimit="2" stroke-width="0" fill="#a58b00"/>
        <path id="path658403" style="font-variant-ligatures:none"
              d="m674.32 462.5q-2.4 0-3.864-1.872t-1.464-4.56q0-3 1.464-4.704t3.864-1.704q2.112 0 3.48 1.512 1.368 1.488 1.368 4.416 0 0.648-0.048 1.176h-8.352q0.216 1.92 1.152 3.048t2.472 1.128q1.464 0 2.76-0.96l0.912 1.128q-1.68 1.392-3.744 1.392zm-3.6-7.248h6.744q-0.024-2.232-0.984-3.144-0.936-0.936-2.16-0.936-1.536 0-2.52 1.032t-1.08 3.048z"
              stroke-miterlimit="2" stroke-width="0" fill="#a58b00"/>
        <path id="path658405" style="font-variant-ligatures:none"
              d="m684.15 462.09q-0.432 0.456-1.056 0.456t-1.08-0.456q-0.432-0.456-0.432-1.056t0.432-1.056q0.456-0.456 1.08-0.456t1.056 0.456q0.456 0.456 0.456 1.056t-0.456 1.056z"
              stroke-miterlimit="2" stroke-width="0" fill="#a58b00"/>
        <path id="path658408" style="font-variant-ligatures:none"
              d="m350.92 301.13 45.09 92.344h-4.2084l-17.074-34.389h-48.216l-16.834 34.389h-3.7274zm-0.36072 8.2966-22.485 46.172h45.21z"
              stroke-miterlimit="2" stroke-width="0" fill="#b1b3b1"/>
        <path id="path658410" style="font-variant-ligatures:none"
              d="m457.04 339.37h3.8477v49.058q0 13.948-7.6954 22.004-7.6954 8.0561-20.2 8.0561-6.8537 0-13.347-3.1262-6.493-3.1262-10.1-8.1763v-5.531q3.1262 5.7715 9.7394 9.6192 6.7334 3.8477 13.707 3.8477 10.581 0 17.315-7.2144 6.7334-7.0942 6.7334-19.479v-8.0561q-3.2465 6.6132-10.22 10.581-6.9739 3.9679-14.429 3.9679-11.784 0-20.2-8.2966-8.4168-8.4168-8.4168-20.08t8.4168-19.96q8.4168-8.4168 20.2-8.4168 7.8156 0 14.549 3.9679 6.8537 3.8477 10.1 10.701zm-49.419 27.174q0 10.22 7.3346 17.675 7.4549 7.3346 17.555 7.3346 10.22 0 17.435-7.3346 7.2144-7.4549 7.2144-17.675t-7.2144-17.555q-7.2144-7.4549-17.435-7.4549-10.1 0-17.555 7.4549-7.3346 7.3346-7.3346 17.555z"
              stroke-miterlimit="2" stroke-width="0" fill="#b1b3b1"/>
        <path id="path658414" style="font-variant-ligatures:none"
              d="m595.14 393.48h-3.8477v-54.108h3.8477v10.942q6.1322-12.264 20.922-12.264 10.1 0 16.954 6.9739 6.8537 6.9739 6.8537 16.954v31.503h-3.8477v-31.503q0-8.2966-5.8918-14.429-5.7715-6.1322-14.068-6.1322-8.2966 0-14.669 6.1322-6.2525 6.1322-6.2525 14.429z"
              stroke-miterlimit="2" stroke-width="0" fill="#b1b3b1"/>
        <path id="path658416" style="font-variant-ligatures:none"
              d="m659.64 339.49v53.988h-3.8477v-53.988zm-1.9238-13.226q-3.487 0-3.487-3.2465t3.487-3.2465 3.487 3.2465-3.487 3.2465z"
              stroke-miterlimit="2" stroke-width="0" fill="#b1b3b1"/>
        <path id="path658418" style="font-variant-ligatures:none"
              d="m696.28 360.65 21.763 32.826h-4.4489l-19.479-29.459-19.359 29.459h-3.8477l21.282-32.465-14.309-21.643h4.4489l12.024 18.276 12.024-18.276h3.8477z"
              stroke-miterlimit="2" stroke-width="0" fill="#b1b3b1"/>
        <path id="icon" stroke-width=".81076" fill="#a58b00"
              d="m523.25 338.41c-0.85511-0.008-1.6364-0.007-1.7355 0.003-0.0992 0.01-0.48459 0.0496-0.85649 0.0879-0.37189 0.0383-0.9678 0.11946-1.324 0.17986-0.35612 0.06-1.0156 0.1997-1.465 0.30969-0.44943 0.10998-1.1418 0.30473-1.5385 0.4332-0.39669 0.12802-1.0255 0.35522-1.3974 0.50443s-1.021 0.43906-1.4425 0.64462c-0.42148 0.20556-1.0197 0.51975-1.3298 0.69871-0.30968 0.17851-0.81684 0.49225-1.127 0.69691-0.30968 0.20466-0.77624 0.53013-1.0368 0.72396-0.2601 0.19339-0.70637 0.5441-0.99172 0.77941-0.28489 0.2353-0.94575 0.85559-1.4682 1.3784-0.52245 0.52291-1.1171 1.1536-1.3221 1.4015-0.20465 0.24793-0.54319 0.67843-0.75235 0.95654-0.20916 0.27813-0.56979 0.79518-0.80194 1.1495-0.23215 0.35386-0.5486 0.86419-0.70368 1.1342-0.15506 0.26957-0.46069 0.85787-0.67978 1.3073-0.21908 0.44898-0.5184 1.1211-0.6658 1.493-0.14696 0.37189-0.34936 0.92954-0.44943 1.2396-0.10053 0.30969-0.24433 0.78707-0.32006 1.0602-0.0757 0.27318-0.19924 0.78617-0.27452 1.1405-0.0748 0.35387-0.17626 0.89119-0.22494 1.1937-0.0487 0.30247-0.11856 0.85421-0.15507 1.2261-0.037 0.3719-0.0802 1.0715-0.0969 1.5552-0.018 0.52066-0.009 1.2469 0.0221 1.7806 0.0288 0.49586 0.0825 1.1653 0.119 1.4876 0.0365 0.32231 0.10819 0.83938 0.15958 1.1495 0.0509 0.30968 0.16273 0.87765 0.24793 1.2622 0.0856 0.38407 0.24838 1.0107 0.36242 1.3925 0.11405 0.38137 0.29572 0.93359 0.40346 1.227 0.10773 0.29345 0.28038 0.73161 0.38362 0.97413 0.10322 0.24252 0.33718 0.73974 0.51975 1.1053 0.18302 0.36513 0.46431 0.88575 0.62479 1.1562 0.17355 0.29211 0.3701 0.55898 0.48324 0.65589 0.10503 0.0902 0.29436 0.21413 0.42013 0.27544 0.12621 0.0618 0.34484 0.13118 0.48594 0.15416 0.15101 0.0243 0.35657 0.0257 0.49812 0.002 0.13252-0.0212 0.32005-0.0722 0.41697-0.11224 0.0965-0.0401 0.26281-0.15867 0.36964-0.26281 0.10639-0.10413 0.24117-0.27047 0.29932-0.36964 0.0582-0.0992 0.13839-0.2903 0.17806-0.42509 0.0401-0.13478 0.0726-0.33899 0.0726-0.45393 0-0.11495-0.0329-0.31916-0.0726-0.45394-0.0401-0.13479-0.2317-0.51164-0.42599-0.83849-0.19429-0.32637-0.48369-0.85381-0.64237-1.172-0.15867-0.3178-0.39128-0.83216-0.51704-1.1419-0.12532-0.31014-0.31194-0.81725-0.41472-1.127-0.10323-0.31014-0.26597-0.87814-0.36288-1.2622-0.0965-0.38452-0.21503-0.92184-0.26371-1.1946-0.0482-0.27272-0.12532-0.77985-0.17085-1.127-0.0658-0.50442-0.0825-0.93399-0.082-2.1412 0.00045-1.19 0.018-1.644 0.082-2.1412 0.0451-0.3471 0.13208-0.89484 0.19384-1.2171 0.0613-0.32231 0.18437-0.87003 0.27318-1.2171 0.0888-0.3471 0.26821-0.94575 0.39894-1.3298 0.13073-0.38452 0.3435-0.94753 0.47197-1.2518 0.12893-0.30428 0.37505-0.83038 0.5468-1.1694 0.17175-0.33855 0.48639-0.90335 0.69917-1.255 0.21232-0.35161 0.57385-0.89662 0.80285-1.2108 0.229-0.31465 0.5761-0.76904 0.77129-1.0093 0.19519-0.24071 0.75101-0.83395 1.2351-1.319 0.48414-0.48504 1.1342-1.0842 1.4439-1.3312 0.31014-0.24703 0.7767-0.60045 1.0368-0.78527 0.26055-0.18482 0.78436-0.52291 1.1639-0.751 0.38001-0.2281 0.9584-0.54681 1.2847-0.70728 0.32682-0.16093 0.81725-0.38722 1.09-0.50308 0.27272-0.11585 0.85511-0.33087 1.2942-0.47737 0.43906-0.14696 1.0882-0.33629 1.4425-0.42149 0.35432-0.0847 0.86727-0.19473 1.14-0.24477 0.27273-0.0496 0.76994-0.12712 1.1044-0.17175 0.4891-0.0654 0.91373-0.0807 2.1638-0.0793 1.2104 0.001 1.685 0.0194 2.1412 0.0798 0.32231 0.0428 0.81952 0.11991 1.1044 0.1713 0.28535 0.0514 0.83306 0.1722 1.2171 0.26867 0.38452 0.0965 0.95248 0.25875 1.2622 0.36063 0.31014 0.10188 0.81092 0.28399 1.1134 0.4048s0.82 0.3489 1.1495 0.50713c0.32998 0.15823 0.8736 0.44538 1.2081 0.63831 0.33493 0.19249 0.86232 0.52291 1.172 0.73388 0.31014 0.21097 0.73613 0.51795 0.94664 0.68204 0.21097 0.16363 0.58963 0.47512 0.84254 0.69195 0.25244 0.21638 0.70548 0.64101 1.007 0.94348 0.30112 0.30248 0.75506 0.79473 1.0084 1.0945 0.2538 0.29932 0.58377 0.70683 0.73388 0.90562 0.15011 0.1988 0.44582 0.62479 0.65679 0.94664 0.21141 0.32186 0.49947 0.78572 0.64011 1.0314 0.1411 0.24523 0.35387 0.64102 0.47287 0.87903 0.11946 0.23802 0.31961 0.66896 0.44493 0.95792 0.12577 0.2885 0.32096 0.77985 0.4341 1.0922 0.11315 0.31194 0.28715 0.8556 0.38677 1.2081 0.0992 0.35206 0.24072 0.92864 0.3142 1.2807 0.073 0.35206 0.17355 0.94575 0.22359 1.319 0.0496 0.37325 0.11089 1.0701 0.13569 1.5489 0.0298 0.5743 0.0302 1.1608 0.00081 1.726-0.0239 0.47107-0.0757 1.1098-0.11495 1.42-0.0392 0.30968-0.12171 0.82722-0.18347 1.1495-0.0618 0.32231-0.16274 0.78888-0.22405 1.0368-0.0618 0.24793-0.19383 0.71449-0.2939 1.0368-0.10008 0.32231-0.30383 0.89662-0.45349 1.2761-0.14921 0.37955-0.43951 1.0287-0.64553 1.4425-0.20555 0.41381-0.53958 1.0259-0.74243 1.361-0.2033 0.33447-0.513 0.81141-0.6888 1.0593-0.17625 0.24793-0.50668 0.68383-0.73432 0.96918-0.22765 0.28489-0.65679 0.78211-0.95338 1.1044-0.29616 0.32231-0.77038 0.79248-1.0539 1.0444-0.28309 0.25244-0.70051 0.60946-0.92767 0.79383-0.22719 0.18437-0.64552 0.50037-0.92994 0.70187-0.2849 0.20195-0.78887 0.53147-1.1202 0.73252-0.33133 0.2006-0.94081 0.53328-1.3546 0.73883-0.41382 0.20602-1.0629 0.49632-1.4425 0.64553-0.37956 0.14966-0.95386 0.35387-1.2761 0.45439-0.32231 0.10052-0.83938 0.24477-1.1495 0.32005-0.30969 0.0757-0.84749 0.18663-1.1946 0.24613-0.3471 0.0599-0.84384 0.13073-1.1044 0.15823-0.2601 0.0271-0.54409 0.0618-0.63109 0.0771-0.0865 0.0153-11.548 0.0401-25.469 0.0555l-25.311 0.0271-0.26145 0.13253c-0.14425 0.073-0.33403 0.21232-0.42238 0.31014-0.0884 0.0978-0.21367 0.29165-0.27903 0.43095-0.10323 0.22088-0.11856 0.31104-0.11811 0.70412 0.00045 0.4012 0.0149 0.48188 0.13073 0.73478 0.0852 0.18527 0.20736 0.35296 0.35116 0.48234 0.12125 0.10864 0.33583 0.24477 0.47737 0.30202l0.25695 0.10368h25.198c20.678 0 25.324-0.0108 25.897-0.0604 0.38452-0.0334 1.0233-0.10819 1.42-0.16635 0.39669-0.0581 1.0156-0.16814 1.3749-0.24432 0.35973-0.0757 0.90968-0.20916 1.223-0.29572 0.31284-0.0865 0.86913-0.25964 1.2356-0.38496 0.36694-0.12487 0.92232-0.33043 1.2342-0.45619 0.31194-0.12578 0.89167-0.38678 1.2883-0.57971 0.39669-0.19294 0.97502-0.49676 1.2847-0.67482 0.31014-0.17852 0.82722-0.49766 1.1495-0.70909 0.32231-0.21186 0.80915-0.55085 1.0819-0.7537 0.27272-0.20286 0.73928-0.57205 1.0368-0.82041 0.29751-0.24883 0.78301-0.68339 1.0783-0.96651 0.29572-0.2831 0.75957-0.75777 1.0314-1.0553 0.27137-0.29752 0.68068-0.77445 0.91016-1.0593 0.229-0.28535 0.60135-0.77895 0.82811-1.0977 0.22629-0.3187 0.58827-0.86638 0.80465-1.2171 0.21637-0.35071 0.61802-1.0842 0.89257-1.6296 0.27452-0.54545 0.60855-1.2658 0.74153-1.6003 0.13343-0.33494 0.35116-0.93311 0.48369-1.3298 0.13298-0.39669 0.33313-1.0864 0.44537-1.5327 0.11225-0.44627 0.26236-1.1562 0.33448-1.5777 0.0717-0.42148 0.16319-1.0503 0.20331-1.3974 0.0397-0.34711 0.0843-1.159 0.0987-1.804 0.0171-0.74064 0.006-1.4461-0.0275-1.9158-0.0297-0.40841-0.0834-0.9764-0.11945-1.2613-0.0361-0.28535-0.11811-0.81279-0.18213-1.172-0.0641-0.35972-0.20375-0.99845-0.31058-1.42-0.10639-0.42148-0.27903-1.0301-0.38362-1.3524-0.10458-0.32231-0.26731-0.78887-0.36107-1.0368-0.0942-0.24793-0.27679-0.69421-0.40616-0.99173-0.12938-0.29751-0.34711-0.76407-0.48324-1.0368-0.13659-0.27272-0.38001-0.72937-0.54094-1.0143-0.16138-0.28489-0.50352-0.83849-0.76047-1.2298-0.25695-0.39173-0.62118-0.91511-0.80961-1.1639-0.18798-0.24883-0.4891-0.62839-0.66851-0.84384-0.17896-0.21502-0.55672-0.64282-0.8389-0.94981-0.28219-0.30743-0.78797-0.81189-1.1238-1.1206-0.33584-0.30924-0.89484-0.79023-1.2419-1.0683-0.3471-0.27859-0.87813-0.67978-1.1801-0.89119-0.30157-0.21097-0.86954-0.577-1.2622-0.8123-0.39218-0.23576-1.0449-0.59458-1.4506-0.79743-0.40525-0.20286-1.0544-0.50173-1.4425-0.66356-0.38767-0.16182-1.0296-0.40255-1.4263-0.53553-0.39669-0.13252-0.99488-0.31284-1.3298-0.40074-0.33448-0.0879-0.86054-0.21097-1.168-0.27362-0.30788-0.0622-0.75415-0.14426-0.99172-0.18122-0.23801-0.0374-0.68565-0.0996-0.99578-0.13839-0.38316-0.0478-1.0607-0.0748-2.1187-0.0847zm42.061 28.02c-0.0144 0.002-0.11856 0.0208-0.2317 0.0401-0.11315 0.0189-0.31285 0.0888-0.44358 0.15507-0.13027 0.0662-0.32321 0.20646-0.42869 0.31194-0.10503 0.10503-0.25064 0.31149-0.32276 0.4589-0.11405 0.23261-0.13163 0.31916-0.13163 0.65138 0 0.26371 0.0262 0.45349 0.0843 0.60856 0.0752 0.2015 0.61622 0.75821 5.0826 5.2296 2.7489 2.7524 4.9983 5.019 4.9983 5.0375s-6.3457 0.0333-14.102 0.0333c-12.31 0-14.13 0.009-14.325 0.0667-0.12351 0.0365-0.3205 0.13027-0.43816 0.20781-0.1172 0.078-0.27092 0.22539-0.3417 0.32772-0.0703 0.10277-0.16318 0.28805-0.206 0.41201-0.046 0.13253-0.0789 0.36469-0.0798 0.56348-0.00081 0.18572 0.023 0.42915 0.0532 0.54094 0.0298 0.11135 0.12351 0.30789 0.20736 0.43591 0.0843 0.12847 0.23981 0.29346 0.3462 0.36649 0.10638 0.073 0.29481 0.17084 0.41877 0.21773l0.22539 0.0843 14.031 0.0225 14.031 0.0225-4.8924 4.891c-2.6912 2.6898-4.9523 4.9829-5.0248 5.0952-0.0726 0.11269-0.16499 0.33358-0.20556 0.49135-0.0496 0.19294-0.064 0.36423-0.0442 0.52201 0.0162 0.12937 0.0856 0.35476 0.15507 0.50081 0.0811 0.17176 0.21547 0.34801 0.38046 0.49857 0.15372 0.14065 0.35882 0.27363 0.51434 0.33358 0.17671 0.0685 0.35973 0.10098 0.57475 0.10233 0.25199 0.002 0.37461-0.0239 0.60856-0.12712l0.29301-0.12937 6.5364-6.5174c5.0398-5.0253 6.5675-6.5733 6.6716-6.7622 0.11674-0.21142 0.13523-0.2912 0.13523-0.58602 0-0.22268-0.0293-0.41967-0.0843-0.56663-0.0752-0.20196-0.75327-0.89525-6.5783-6.7253-4.4303-4.4344-6.5598-6.5355-6.7-6.6112-0.11314-0.0613-0.32636-0.13388-0.47332-0.16048-0.1474-0.0271-0.27903-0.0469-0.29301-0.0437z"/>
 </g>

</svg>
